<!--?xml version="1.0" encoding="utf-8"?-->
<!-- Generator: Adobe Illustrator 18.1.1, SVG Export Plug-In . SVG Version: 6.00 Build 0)  -->

<svg version="1.1" id="_x32_" xmlns="http://www.w3.org/2000/svg" xmlns:xlink="http://www.w3.org/1999/xlink" x="0px" y="0px" viewBox="0 0 512 512" style="width: 16px; height: 16px; opacity: 1;" xml:space="preserve">
<style type="text/css">
	.st0{fill:#4B4B4B;}
</style>
<g>
	<path class="st0" d="M496.145,112.909c-9.735-9.758-23.396-15.855-38.278-15.846H212.761c-3.012,0-5.932-1.147-8.151-3.235
		l0.017,0.026l-43.07-40.39c-10.04-9.405-23.272-14.643-37.024-14.643h-70.4c-14.882-0.008-28.552,6.096-38.278,15.856
		C6.096,64.403-0.008,78.072,0,92.954v326.092c-0.008,14.882,6.096,28.551,15.855,38.277c9.726,9.759,23.396,15.863,38.278,15.856
		h403.735c14.882,0.008,28.551-6.096,38.278-15.856c9.758-9.726,15.863-23.395,15.855-38.277V151.187
		C512.008,136.305,505.904,122.636,496.145,112.909z M469.763,419.046c-0.008,3.349-1.295,6.187-3.481,8.406
		c-2.228,2.194-5.065,3.481-8.414,3.49H54.133c-3.35-0.008-6.188-1.296-8.414-3.49c-2.186-2.219-3.474-5.057-3.481-8.406V242.731
		h427.526V419.046z M469.763,208.941H42.237V92.954c0.008-3.35,1.295-6.187,3.481-8.415c2.226-2.186,5.065-3.472,8.414-3.481h70.4
		c3.028,0,5.923,1.147,8.142,3.218l43.062,40.381l0.016,0.025c10.015,9.363,23.239,14.618,37.007,14.618h245.107
		c3.349,0.008,6.195,1.295,8.414,3.481c2.186,2.219,3.473,5.057,3.481,8.406V208.941z" style="fill: rgb(75, 75, 75);"></path>
</g>
</svg>
